<svg xmlns="http://www.w3.org/2000/svg" xmlns:xlink="http://www.w3.org/1999/xlink" width="200" height="200" class="icon" p-id="1181" t="1551877083840" version="1.1" viewBox="0 0 1024 1024"><defs><style type="text/css"/></defs><path d="M864 0h-768C43.2 0 0 43.2 0 96v832c0 52.8 43.2 96 96 96h768c52.8 0 96-43.2 96-96v-832c0-52.8-43.2-96-96-96zM832 896H128V128h704v768zM256 576h448v64H256z m0 128h448v64H256z m64-416a96 96 0 1 1 192.064 0.064A96 96 0 0 1 320 288zM480 384h-128C299.2 384 256 412.8 256 448v64h320V448c0-35.2-43.2-64-96-64z" p-id="1182"/></svg>